<svg width="403" height="290" viewBox="0 0 403 290" fill="none" xmlns="http://www.w3.org/2000/svg">
<g filter="url(#filter0_d_1_83)">
<path d="M8.51904 191.361L159.76 278.672C163.537 280.852 167.82 282 172.181 282C176.542 282 180.826 280.852 184.602 278.672L393.693 157.945C395.211 157.059 396.471 155.791 397.346 154.267C398.222 152.743 398.683 151.016 398.683 149.259C398.683 147.501 398.222 145.774 397.346 144.25C396.471 142.726 395.211 141.458 393.693 140.572L238.436 50.4511C236.451 49.3029 234.199 48.6983 231.906 48.6983C229.613 48.6983 227.361 49.3029 225.376 50.4511L8.51904 175.664C7.14448 176.462 6.00357 177.607 5.2105 178.984C4.41742 180.362 4 181.923 4 183.513C4 185.102 4.41742 186.663 5.2105 188.041C6.00357 189.418 7.14448 190.563 8.51904 191.361Z" fill="#FFABC1"/>
<path d="M302.673 150.117L259.804 176.461L308.967 206.863L359 178.107L302.673 150.117Z" fill="url(#paint0_linear_1_83)"/>
<path d="M286.741 176.206L243.872 202.551L272.997 219.565L315.886 193.343L286.741 176.206Z" fill="url(#paint1_linear_1_83)"/>
<path d="M78.7439 180.805L35.8855 207.159L120.468 256.558L164.216 231.082L78.7439 180.805Z" fill="url(#paint2_linear_1_83)"/>
<path d="M138.944 55.6117V90.5096L186.186 62.9285V30.0234L138.944 55.6117Z" fill="#FFDDDC"/>
<path d="M157.43 60.2716L147.027 66.403C147.027 66.403 144.534 67.9563 145.075 70.2453C145.617 72.5344 147.671 71.9621 148.672 71.4614C149.674 70.9607 174.107 57.6555 174.107 57.6555C174.107 57.6555 175.967 58.146 175.395 60.9256C174.823 63.7052 167.7 67.2205 167.7 67.2205" stroke="#F7931E" stroke-width="0.410124" stroke-miterlimit="10"/>
<path d="M153.67 61.3037C153.656 61.7665 153.765 62.2246 153.986 62.6314C154.207 63.0382 154.532 63.3789 154.928 63.619C155.324 63.859 155.777 63.9897 156.239 63.9976C156.702 64.0056 157.159 63.8906 157.563 63.6643L168.436 57.5329C168.838 57.3057 169.173 56.9761 169.406 56.5776C169.639 56.1792 169.763 55.726 169.764 55.2643C169.756 54.8113 169.63 54.3683 169.399 53.9786C169.167 53.5889 168.839 53.266 168.445 53.0414C168.052 52.8169 167.607 52.6984 167.154 52.6975C166.701 52.6966 166.255 52.8135 165.861 53.0366L154.988 59.168C154.607 59.3849 154.286 59.6942 154.056 60.0674C153.825 60.4406 153.693 60.8658 153.67 61.3037Z" fill="#F9635C"/>
<path d="M153.67 73.2088C153.656 73.6716 153.765 74.1297 153.986 74.5365C154.207 74.9433 154.532 75.2841 154.928 75.5241C155.324 75.7641 155.777 75.8948 156.239 75.9027C156.702 75.9107 157.159 75.7957 157.563 75.5694L168.436 69.438C168.838 69.2108 169.173 68.8812 169.406 68.4827C169.639 68.0843 169.763 67.6312 169.764 67.1694C169.764 66.7135 169.644 66.2658 169.417 65.8705C169.19 65.4752 168.863 65.1461 168.47 64.9158C168.076 64.6855 167.63 64.5621 167.174 64.5576C166.718 64.5532 166.269 64.668 165.871 64.8906L154.998 71.022C154.608 71.2422 154.281 71.559 154.048 71.9419C153.816 72.3248 153.685 72.7611 153.67 73.2088Z" fill="#F9635C"/>
<path d="M303.112 147.511V140.358L299.464 141.38C299.464 141.38 301.875 147.409 303.112 147.511Z" fill="#E75A59"/>
<path d="M69.1176 184.688V176.921L72.8986 180.702C72.8986 180.702 73.1132 184.667 69.1176 184.688Z" fill="#E75A59"/>
<path d="M72.0607 179.445L214.309 97.8263C215.827 96.9462 217.551 96.4826 219.306 96.4826C221.061 96.4826 222.785 96.9462 224.303 97.8263L300.251 142.289C301.137 142.804 301.873 143.543 302.385 144.431C302.896 145.32 303.165 146.327 303.165 147.353C303.165 148.378 302.896 149.385 302.385 150.274C301.873 151.163 301.137 151.901 300.251 152.416L159.453 233.841C157.432 235.009 155.135 235.617 152.8 235.602C150.465 235.588 148.176 234.952 146.169 233.759L71.9789 189.562C71.0988 189.04 70.3711 188.295 69.8683 187.404C69.3655 186.512 69.1053 185.504 69.1136 184.48C69.1219 183.457 69.3983 182.453 69.9154 181.57C70.4326 180.686 71.1722 179.954 72.0607 179.445Z" fill="#E75A59"/>
<path d="M72.0607 173.018L214.309 91.3986C215.827 90.5184 217.551 90.0549 219.306 90.0549C221.061 90.0549 222.785 90.5184 224.303 91.3986L300.251 135.81C301.137 136.325 301.873 137.064 302.385 137.953C302.896 138.841 303.165 139.849 303.165 140.874C303.165 141.899 302.896 142.906 302.385 143.795C301.873 144.684 301.137 145.422 300.251 145.937L159.453 227.413C157.432 228.581 155.135 229.189 152.8 229.175C150.465 229.16 148.176 228.524 146.169 227.332L71.9789 183.134C71.0988 182.612 70.3711 181.867 69.8683 180.976C69.3655 180.084 69.1053 179.076 69.1136 178.053C69.1219 177.029 69.3983 176.025 69.9154 175.142C70.4326 174.259 71.1722 173.526 72.0607 173.018Z" fill="#FFDDDC"/>
<path d="M210.855 101.597C211.642 101.863 283.492 143.771 283.492 143.771L163.47 214.078L90.9147 172.18L210.855 101.597Z" fill="white"/>
<path d="M132.506 207.425C132.729 207.295 132.923 207.119 133.074 206.909C133.226 206.699 133.331 206.459 133.384 206.206C133.437 205.953 133.436 205.691 133.382 205.438C133.327 205.185 133.221 204.946 133.068 204.737C132.053 203.676 130.873 202.785 129.573 202.101C128.347 201.334 127.069 200.67 125.823 199.934L116.156 194.273L108.226 189.634C107.705 189.312 107.119 189.11 106.511 189.045C105.903 188.979 105.287 189.052 104.71 189.256C103.881 189.547 103.165 190.095 102.667 190.819C102.541 191.026 102.462 191.256 102.433 191.496C102.404 191.735 102.426 191.979 102.499 192.209C102.572 192.439 102.692 192.651 102.853 192.831C103.015 193.011 103.212 193.154 103.433 193.251L118.046 201.713L124.341 205.361L127.979 207.486C128.533 207.818 129.154 208.024 129.797 208.09C130.44 208.155 131.089 208.078 131.699 207.864C131.987 207.757 132.259 207.609 132.506 207.425Z" fill="#E75A59"/>
<path d="M96.3921 187.672C97.7917 187.672 98.9264 186.734 98.9264 185.577C98.9264 184.42 97.7917 183.482 96.3921 183.482C94.9924 183.482 93.8578 184.42 93.8578 185.577C93.8578 186.734 94.9924 187.672 96.3921 187.672Z" fill="#E75A59"/>
<path d="M330.713 168.204C347.983 168.204 361.984 154.204 361.984 136.934C361.984 119.664 347.983 105.664 330.713 105.664C313.443 105.664 299.443 119.664 299.443 136.934C299.443 154.204 313.443 168.204 330.713 168.204Z" fill="#68E1FD"/>
<path opacity="0.1" d="M349.741 112.123C350.854 114.684 351.65 117.371 352.112 120.124C354.943 137.241 343.416 154.48 326.667 158.813C320.87 160.248 314.837 160.45 308.957 159.406C312.018 162.36 315.649 164.659 319.629 166.161C323.608 167.664 327.852 168.339 332.102 168.144C336.351 167.95 340.516 166.891 344.342 165.031C348.168 163.172 351.574 160.552 354.352 157.331C357.131 154.11 359.223 150.356 360.5 146.298C361.778 142.241 362.214 137.965 361.782 133.734C361.351 129.502 360.06 125.403 357.99 121.687C355.919 117.971 353.113 114.717 349.741 112.123Z" fill="black"/>
<path d="M353.216 183.799C363.013 183.799 370.956 175.856 370.956 166.059C370.956 156.261 363.013 148.318 353.216 148.318C343.418 148.318 335.476 156.261 335.476 166.059C335.476 175.856 343.418 183.799 353.216 183.799Z" fill="#68E1FD"/>
<path opacity="0.1" d="M364.017 151.977C364.65 153.429 365.103 154.952 365.366 156.514C366.053 161.305 364.965 166.181 362.305 170.225C359.645 174.268 355.598 177.199 350.927 178.464C347.639 179.279 344.216 179.394 340.881 178.802C342.617 180.479 344.678 181.784 346.936 182.638C349.194 183.492 351.602 183.875 354.014 183.766C356.426 183.656 358.789 183.055 360.961 182C363.132 180.945 365.065 179.458 366.642 177.63C368.219 175.802 369.406 173.671 370.13 171.369C370.855 169.066 371.102 166.639 370.856 164.238C370.61 161.836 369.877 159.51 368.701 157.402C367.525 155.294 365.931 153.448 364.017 151.977Z" fill="black"/>
<path d="M299.631 173.873C301.995 168.285 300.19 162.182 295.601 160.24C291.011 158.298 285.374 161.254 283.01 166.842C280.647 172.429 282.451 178.533 287.041 180.475C291.63 182.416 297.267 179.461 299.631 173.873Z" fill="#792155"/>
<path d="M296.94 160.898L301.446 164.168L290.226 182.961L285.811 179.762" fill="#792155"/>
<path d="M303.784 176.819C306.148 171.231 304.344 165.128 299.754 163.186C295.164 161.244 289.527 164.2 287.164 169.788C284.8 175.376 286.604 181.479 291.194 183.421C295.784 185.362 301.42 182.407 303.784 176.819Z" fill="#995F85"/>
<path d="M301.127 175.695C302.441 172.587 301.434 169.19 298.877 168.108C296.32 167.026 293.181 168.669 291.866 171.777C290.551 174.886 291.558 178.282 294.115 179.364C296.673 180.446 299.812 178.803 301.127 175.695Z" fill="#792155"/>
<path d="M321.005 184.381C319.309 183.768 317.664 182.337 316.172 181.315C313.29 179.428 310.419 177.521 307.557 175.593L303.562 172.905C302.62 172.091 301.592 171.381 300.496 170.79C298.237 169.901 295.703 172.282 295.233 174.367C295.026 175.102 294.983 175.874 295.106 176.628C295.23 177.382 295.517 178.099 295.948 178.73C296.889 179.926 298.452 180.498 299.678 181.336L303.766 184.136L311.624 189.47L313.546 190.768" fill="#A87398"/>
<path d="M316.364 184.791C318.727 179.204 316.923 173.1 312.333 171.159C307.744 169.217 302.107 172.173 299.743 177.76C297.379 183.348 299.184 189.452 303.773 191.393C308.363 193.335 314 190.379 316.364 184.791Z" fill="#792155"/>
<path d="M313.668 171.812L318.175 175.082L306.965 193.875L302.54 190.676" fill="#792155"/>
<path d="M320.521 187.728C322.885 182.14 321.08 176.037 316.49 174.095C311.901 172.154 306.264 175.109 303.9 180.697C301.536 186.285 303.341 192.388 307.93 194.33C312.52 196.271 318.157 193.316 320.521 187.728Z" fill="#995F85"/>
<path d="M317.859 186.613C319.174 183.505 318.167 180.108 315.609 179.027C313.052 177.945 309.913 179.587 308.598 182.696C307.283 185.804 308.29 189.201 310.848 190.283C313.405 191.365 316.544 189.722 317.859 186.613Z" fill="#792155"/>
<path d="M221.708 96.3957L122.175 160.315V172.742L165.002 197.186L267.366 136.332V124.018L221.708 96.3957Z" fill="#68E1FD"/>
<path opacity="0.1" d="M267.366 124.13L221.708 96.5081L122.175 160.428L165.094 184.626L267.366 124.13Z" fill="black"/>
<path d="M261.654 120.819L231.293 102.558L139.976 157.117L169.202 174.929" fill="#603813"/>
<path d="M186.166 66.219C186.111 66.0844 186.018 65.9688 185.898 65.887C185.778 65.8052 185.637 65.7607 185.491 65.7592C185.59 66.0509 185.606 66.3645 185.535 66.6644C185.465 66.9643 185.311 67.2384 185.093 67.4555C184.329 68.2424 183.42 68.8739 182.416 69.3154C181.966 69.6628 181.496 70.0001 181.036 70.3373C180.739 70.5467 180.374 70.6344 180.014 70.5825C179.641 71.0788 179.176 71.4986 178.645 71.819C177.866 72.263 177.133 72.7833 176.458 73.3723C175.937 73.8322 174.71 74.7723 175.078 75.4161C175.446 76.0599 176.356 75.8453 177.255 75.4161L177.04 75.6818C176.366 76.5198 176.018 77.9811 177.541 78.0322C177.408 78.2773 177.353 78.5569 177.382 78.8342C177.411 79.1115 177.524 79.3734 177.705 79.5855C178.563 80.3008 179.237 79.5855 179.626 79.1767C179.789 79.3325 179.988 79.4463 180.205 79.5086C180.422 79.5709 180.651 79.5797 180.872 79.5344C181.058 79.5002 181.233 79.4234 181.384 79.3098C181.535 79.1963 181.657 79.0493 181.741 78.8804C184.623 80.2906 185.675 73.1271 185.931 70.4292C186.309 69.0701 186.708 67.4044 186.166 66.219Z" fill="#F9635C"/>
<path d="M180.545 76.0395C180.527 75.8877 180.478 75.7414 180.4 75.6095C180.323 75.4777 180.219 75.3631 180.096 75.2731C180.852 75.1454 181.538 74.7501 182.027 74.1592C182.322 73.7623 182.509 73.2957 182.57 72.805C182.631 72.3143 182.564 71.8162 182.375 71.3592C182.353 71.3036 182.31 71.259 182.255 71.235C182.201 71.2111 182.139 71.2098 182.083 71.2315C182.028 71.2531 181.983 71.296 181.959 71.3506C181.935 71.4052 181.934 71.4671 181.956 71.5227C182.129 71.9381 182.182 72.3937 182.11 72.838C182.038 73.2823 181.843 73.6974 181.547 74.0366C180.932 74.6043 180.135 74.934 179.299 74.9665H179.217C179.221 74.9155 179.221 74.8642 179.217 74.8132C178.849 73.7198 177.572 74.5475 177.173 75.1402C177.01 75.3753 177.357 75.6614 177.531 75.4264C177.705 75.1913 178.083 74.7212 178.471 74.7417C179.217 74.7417 178.553 75.9373 178.471 76.1519C178.166 76.7646 177.825 77.3584 177.449 77.93C177.286 78.1753 177.643 78.4614 177.807 78.2161C178.216 77.6126 178.588 76.9847 178.921 76.3359C179.083 76.0549 179.213 75.7567 179.309 75.4468C181.169 75.5081 179.902 77.93 179.503 78.911C179.391 79.1767 179.81 79.3709 179.922 79.095C180.312 78.2675 180.574 77.3853 180.699 76.4789C181.363 76.3665 182.14 76.4789 182.027 77.3373C181.929 77.8375 181.781 78.327 181.588 78.7986C181.496 79.0745 181.915 79.2585 182.007 78.9826C182.232 78.2877 182.702 77.3782 182.405 76.6424C182.109 75.9067 181.189 75.9373 180.545 76.0395Z" fill="#111224"/>
<path d="M228.943 93.4833L239.162 94.8935C239.162 94.8935 241.41 94.6789 241.829 91.7154C242.248 88.7519 240.388 88.7008 240.388 88.7008L230.864 85.8701" fill="#F9635C"/>
<path d="M240.01 86.5753C239.294 86.5753 238.344 87.8629 238.303 88.0979C238.262 88.3329 239.611 88.4249 239.611 88.4249C241.471 90.0906 241.052 92.7373 240.633 93.003C240.214 93.2687 238.426 91.5315 237.843 92.0526C237.216 93.0317 236.863 94.1609 236.821 95.3227C236.934 95.6702 239.325 95.3227 239.458 95.476C240.97 96.5694 242.064 98.9607 242.646 100.677C243.229 102.394 243.505 103.794 244.986 104.898C245.391 105.227 245.872 105.447 246.385 105.539C246.898 105.63 247.426 105.589 247.919 105.419C248.941 104.908 249.37 103.426 249.503 102.353C249.84 99.676 248.941 96.8964 248.042 94.4132C247.312 92.1582 246.367 89.9785 245.221 87.9037C244.956 87.4848 240.735 86.5242 240.01 86.5753Z" fill="#ABDB3A"/>
<path d="M186.983 130.292V140.01C187.243 140.805 187.752 141.495 188.435 141.978C189.118 142.46 189.939 142.709 190.775 142.688C191.56 142.722 192.329 142.459 192.93 141.952C193.53 141.444 193.917 140.729 194.014 139.949L194.791 130.926" fill="#F9635C"/>
<path d="M196.15 139.377C195.966 138.61 194.464 137.803 194.198 137.793C193.932 137.783 194.075 139.264 194.075 139.264C192.604 141.574 189.661 141.584 189.303 141.155C188.945 140.726 190.509 138.508 189.845 137.977C188.675 137.468 187.391 137.281 186.125 137.435C185.767 137.619 186.513 140.143 186.421 140.317C185.512 142.146 183.1 143.75 181.312 144.67C179.524 145.59 178.083 146.142 177.153 147.95C176.87 148.449 176.721 149.012 176.721 149.586C176.721 150.159 176.87 150.722 177.153 151.221C177.889 152.242 179.564 152.447 180.729 152.406C183.683 152.304 186.534 150.842 189.068 149.432C191.38 148.248 193.574 146.845 195.618 145.242C196.017 144.885 196.334 140.143 196.15 139.377Z" fill="#ABDB3A"/>
<path d="M186.309 53.8643C185.113 60.1387 183.059 65.7694 179.156 70.6234C179.391 71.2672 180.852 74.2307 188.159 74.2307L194.719 65.5752L186.309 53.8643Z" fill="#E25096"/>
<path d="M188.24 69.7548C188.24 69.7548 179.043 80.9957 183.264 91.3271C187.065 100.78 213.635 100.115 230.2 97.4585C230.2 97.4585 237.097 93.1052 233.214 85.8599C233.214 85.8599 212.03 82.7942 208.832 82.549" fill="#5699D1"/>
<path d="M190.172 71.2877C190.172 71.2877 180.126 96.4264 180.157 102.251C180.188 108.076 184.786 133.215 184.786 133.215C184.786 133.215 190.294 136.659 197.734 133.215C197.734 133.215 196.783 105.204 197.948 101.219C199.113 97.2337 209.578 77.5008 203.528 69.7548L190.172 71.2877Z" fill="#6DA8E2"/>
<path d="M188.24 69.7548C187.474 68.9782 182.722 49.3986 185.839 45.0862C188.956 40.7738 203.129 47.9373 205.255 51.0438C207.38 54.1504 203.773 67.7315 203.508 69.7548C203.242 71.7782 193.973 75.5183 188.24 69.7548Z" fill="#F877AF"/>
<path d="M199.083 72.5139H198.94C198.149 77.3178 196.988 82.0532 195.465 86.6774C193.728 91.93 190.969 96.9578 190.1 102.466C189.232 107.974 189.538 113.472 189.61 118.908C189.678 124.168 189.852 129.427 190.131 134.686H190.877C190.604 129.413 190.427 124.137 190.345 118.857C190.274 113.083 189.875 106.983 191.051 101.291C192.175 95.8439 194.944 90.7957 196.61 85.5023C197.947 81.1735 198.971 76.7543 199.675 72.2789C199.483 72.3708 199.285 72.4494 199.083 72.5139Z" fill="white"/>
<path d="M190.652 38.8015C190.55 39.3124 190.202 47.7942 194.341 49.2146C198.48 50.6351 203.334 41.908 201.321 37.7489C199.308 33.5898 191.817 33.0073 190.652 38.8015Z" fill="#F9635C"/>
<path d="M198.061 40.2628C198.756 41.1723 198.776 43.5533 198.521 44.6876C198.468 45.2075 198.468 45.7313 198.521 46.2511C198.471 46.7024 198.447 47.1562 198.449 47.6103C198.841 47.3008 199.207 46.9589 199.543 46.5884C199.613 46.6424 199.697 46.6757 199.786 46.6848C199.874 46.6938 199.963 46.6781 200.043 46.6395C200.203 46.5602 200.354 46.4643 200.493 46.3533C200.84 46.1183 201.249 45.9855 201.607 45.7709C202.29 45.291 202.782 44.5853 202.997 43.7781C203.346 42.9023 203.563 41.9793 203.64 41.0395C203.821 39.1704 203.466 37.2886 202.618 35.6132C200.381 31.3416 194.658 31.2497 191.143 34.0497C191.316 33.6818 191.735 32.5679 190.509 32.8336C189.048 33.1402 187.883 36.0935 187.883 36.0935C187.668 35.5723 188.394 34.1621 188.394 34.1621C188.394 34.1621 186.667 34.4687 186.953 37.2789C187.239 40.0891 190.591 41.8161 191.674 39.3942C192.757 36.9723 193.074 37.2891 193.074 37.2891C191.97 39.2818 193.013 40.7329 195.455 41.1927C195.932 41.3349 196.441 41.3214 196.91 41.1541C197.379 40.9869 197.782 40.6747 198.061 40.2628Z" fill="#111224"/>
<path d="M200.053 42.7052C199.955 42.5183 199.815 42.3563 199.645 42.2315C199.475 42.1067 199.278 42.0224 199.07 41.985C198.862 41.9475 198.649 41.958 198.445 42.0155C198.242 42.073 198.055 42.176 197.897 42.3168C197.437 42.8364 197.089 43.4452 196.875 44.1052C196.808 44.2865 196.808 44.4859 196.875 44.6672C196.785 44.8334 196.738 45.0196 196.738 45.2088C196.738 45.398 196.785 45.5842 196.875 45.7504C197.024 45.9892 197.258 46.1617 197.53 46.2321C197.802 46.3025 198.091 46.2654 198.337 46.1285C199.379 45.5971 200.779 43.9928 200.053 42.7052Z" fill="#F9635C"/>
<path d="M199.001 46.8438C200.547 46.8438 201.801 45.5902 201.801 44.0438C201.801 42.4974 200.547 41.2438 199.001 41.2438C197.455 41.2438 196.201 42.4974 196.201 44.0438C196.201 45.5902 197.455 46.8438 199.001 46.8438Z" fill="#ABDB3A"/>
<path d="M192.675 32.9869C192.675 32.9869 199.553 34.4175 198.705 42.5825L200.861 41.9489C200.861 41.9489 202.394 34.9591 194.872 32.0876C194.459 32.0246 194.036 32.075 193.65 32.2333C193.263 32.3917 192.926 32.6521 192.675 32.9869Z" fill="#ABDB3A"/>
<path d="M201.791 34.4175C201.791 34.4175 202.394 28.5825 207.053 28.6847C211.713 28.7869 211.417 32.5475 214.564 32.5475C217.712 32.5475 220.256 26.2526 224.007 28.0818C227.757 29.911 230.404 42.0307 221.37 42.5723C212.337 43.1139 210.804 34.9796 208.474 36.1548C206.144 37.33 205.214 41.2643 202.179 41.4175" fill="#111224"/>
<path d="M213.277 68.9782C213.306 68.8138 213.275 68.6445 213.191 68.5004C213.107 68.3564 212.974 68.2468 212.817 68.1913C213.308 67.4555 212.275 66.403 211.601 67.0876C211.356 67.3397 211.104 67.5782 210.845 67.803C210.82 67.6881 210.77 67.5803 210.698 67.4873C210.626 67.3943 210.535 67.3186 210.43 67.2657C210.325 67.2128 210.21 67.184 210.092 67.1815C209.975 67.179 209.858 67.2028 209.751 67.2511C209.622 67.1948 209.479 67.1783 209.341 67.2038C209.203 67.2293 209.075 67.2956 208.975 67.3942L207.258 68.876C206.459 69.363 205.537 69.6112 204.601 69.5913C203.767 69.5524 202.932 69.5969 202.108 69.7241C201.474 69.8263 200.064 69.949 200.064 70.603C200.064 71.257 200.851 71.5738 201.75 71.7168L201.453 71.819C200.503 72.1358 199.471 72.9431 200.207 73.9752C200.015 74.0741 199.868 74.2415 199.794 74.4441C199.72 74.6467 199.725 74.8697 199.808 75.0687C200.115 76.0906 200.943 76.0906 201.729 75.8453C201.893 76.2439 202.077 76.6117 202.526 76.7446C203.036 76.8128 203.554 76.7199 204.008 76.4789C205.562 78.5942 209.475 74.1183 211.029 72.146C211.959 71.2774 213.113 70.1738 213.277 68.9782Z" fill="#F9635C"/>
<path d="M218.499 61.6716C217.681 56.7869 214.033 53.7723 209.792 51.7285C207.636 50.7066 205.388 49.8686 203.191 48.9285C201.944 48.3971 200.708 47.8453 199.481 47.2832C199.236 47.1708 197.345 46.5679 197.294 46.2613L199.635 56.8686C201.464 57.727 201.362 58.5241 203.17 59.4234C204.703 60.1898 208.065 60.9767 208.454 62.8672C208.531 63.2436 208.548 63.6299 208.505 64.0117C208.298 64.8817 207.921 65.7019 207.395 66.4247C206.868 67.1475 206.203 67.7584 205.439 68.2219C206.873 70.3785 208.508 72.3939 210.324 74.2409C210.324 74.2409 219.735 68.8964 218.499 61.6716Z" fill="#F877AF"/>
<path d="M70.1089 94.1271V129.025L117.361 101.434V68.5387L70.1089 94.1271Z" fill="#FFDDDC"/>
<path d="M95.3804 29.3081V69.295L149.51 37.6876V0L95.3804 29.3081Z" fill="#FEE565"/>
<path d="M109.043 33.784C109.831 33.3863 110.707 33.1969 111.589 33.2338C112.471 33.2706 113.328 33.5325 114.08 33.9945C114.832 34.4564 115.453 35.1031 115.884 35.873C116.316 36.6429 116.543 37.5103 116.544 38.3927V43.4307C116.543 44.4059 116.266 45.3609 115.745 46.1854C115.224 47.0099 114.481 47.6704 113.601 48.0905C112.813 48.4666 111.943 48.6371 111.072 48.5862C110.2 48.5354 109.356 48.2647 108.617 47.7995C107.879 47.3343 107.27 46.6898 106.848 45.9259C106.425 45.1619 106.203 44.3035 106.202 43.4307V38.3927C106.204 37.437 106.47 36.5004 106.971 35.6868C107.473 34.8733 108.19 34.2146 109.043 33.784Z" fill="#F9635C"/>
<path d="M115.297 42.981L131.709 33.8861V28.6642L115.297 37.9431V42.981Z" fill="#F9635C"/>
<path d="M132.291 23.2278C133.08 22.8254 133.959 22.6322 134.843 22.6666C135.728 22.7011 136.589 22.9621 137.343 23.4246C138.098 23.8871 138.722 24.5357 139.154 25.3082C139.586 26.0807 139.813 26.9513 139.813 27.8365V32.8745C139.811 33.8497 139.534 34.8047 139.014 35.6292C138.493 36.4537 137.75 37.1142 136.869 37.5343C136.082 37.9104 135.212 38.0809 134.34 38.03C133.469 37.9792 132.625 37.7085 131.886 37.2433C131.147 36.7781 130.539 36.1336 130.116 35.3696C129.694 34.6057 129.472 33.7473 129.471 32.8745V27.8365C129.47 26.8829 129.734 25.9478 130.231 25.1344C130.729 24.3211 131.442 23.6612 132.291 23.2278Z" fill="#F9635C"/>
<path d="M87.2768 107.044L101.042 99.4205V95.0366L87.2768 102.823V107.044Z" fill="#F9635C"/>
<path d="M106.264 90.5607C106.264 88.5741 104.653 86.9636 102.667 86.9636C100.68 86.9636 99.0695 88.5741 99.0695 90.5607V100.402C99.0695 102.388 100.68 103.999 102.667 103.999C104.653 103.999 106.264 102.388 106.264 100.402V90.5607Z" fill="#F9635C"/>
<path d="M89.76 99.8804C89.76 97.8937 88.1495 96.2833 86.1629 96.2833C84.1763 96.2833 82.5658 97.8937 82.5658 99.8804V109.721C82.5658 111.708 84.1763 113.318 86.1629 113.318C88.1495 113.318 89.76 111.708 89.76 109.721V99.8804Z" fill="#F9635C"/>
<path d="M81.8811 103.069H81.8709C80.539 103.069 79.4592 104.148 79.4592 105.48V108.597C79.4592 109.929 80.539 111.009 81.8709 111.009H81.8811C83.2131 111.009 84.2928 109.929 84.2928 108.597V105.48C84.2928 104.148 83.2131 103.069 81.8811 103.069Z" fill="#F9635C"/>
<path d="M107.163 91.0716H107.153C105.821 91.0716 104.741 92.1513 104.741 93.4833V96.6001C104.741 97.932 105.821 99.0117 107.153 99.0117H107.163C108.495 99.0117 109.575 97.932 109.575 96.6001V93.4833C109.575 92.1513 108.495 91.0716 107.163 91.0716Z" fill="#F9635C"/>
<path d="M144.922 102.946L168.967 90.6833C168.967 90.6833 173.055 90.0497 174.077 92.9008L157.307 102.394L155.621 107.984" fill="#F2F2F2"/>
<path d="M184.337 185.689L202.731 127.073L217.957 118.438C217.957 118.438 218.703 115.955 214.227 115.71L193.728 127.012L140.18 98.3169C140.18 98.3169 136.706 96.8249 134.591 100.677L150.124 109.619L136.042 151.404L143.461 146.642L155.233 112.307L193.248 131.937L196.599 130.077C196.599 130.077 178.205 188.939 178.205 189.348C178.205 189.756 181.547 187.488 184.337 185.689Z" fill="#F2F2F2"/>
</g>
<defs>
<filter id="filter0_d_1_83" x="0" y="0" width="402.683" height="290" filterUnits="userSpaceOnUse" color-interpolation-filters="sRGB">
<feFlood flood-opacity="0" result="BackgroundImageFix"/>
<feColorMatrix in="SourceAlpha" type="matrix" values="0 0 0 0 0 0 0 0 0 0 0 0 0 0 0 0 0 0 127 0" result="hardAlpha"/>
<feOffset dy="4"/>
<feGaussianBlur stdDeviation="2"/>
<feComposite in2="hardAlpha" operator="out"/>
<feColorMatrix type="matrix" values="0 0 0 0 0 0 0 0 0 0 0 0 0 0 0 0 0 0 0.25 0"/>
<feBlend mode="normal" in2="BackgroundImageFix" result="effect1_dropShadow_1_83"/>
<feBlend mode="normal" in="SourceGraphic" in2="effect1_dropShadow_1_83" result="shape"/>
</filter>
<linearGradient id="paint0_linear_1_83" x1="287.518" y1="194.171" x2="345.807" y2="149.187" gradientUnits="userSpaceOnUse">
<stop stop-color="#FFABC1"/>
<stop offset="0.99" stop-color="#E57EBC"/>
</linearGradient>
<linearGradient id="paint1_linear_1_83" x1="262.195" y1="211.594" x2="309.284" y2="175.245" gradientUnits="userSpaceOnUse">
<stop stop-color="#FFABC1"/>
<stop offset="0.99" stop-color="#E57EBC"/>
</linearGradient>
<linearGradient id="paint2_linear_1_83" x1="91.4972" y1="233.708" x2="115.9" y2="192.076" gradientUnits="userSpaceOnUse">
<stop stop-color="#FFABC1"/>
<stop offset="0.99" stop-color="#E57EBC"/>
</linearGradient>
</defs>
</svg>
